<svg xmlns="http://www.w3.org/2000/svg" width="256" height="256"><path fill-opacity=".016" d="M0 128.004v128.004l128.25-.254 128.25-.254.254-127.75L257.008 0H0v128.004m.485.496c0 70.4.119 99.053.265 63.672.146-35.38.146-92.98 0-128C.604 29.153.485 58.1.485 128.5" fill="#1976D2" fill-rule="evenodd"/><path fill-opacity=".414" d="M102 1.485C58.233 10.219 19.922 44.278 5.579 87.204.69 101.834-.213 109.28.237 131.242.604 149.203.947 152.577 3.26 161c13.289 48.381 52.324 84.454 101.219 93.539 13.962 2.594 42.639 1.65 55.77-1.836 33.047-8.772 62.034-31.047 79.721-61.263 5.613-9.589 11.551-25.204 13.78-36.236 1.028-5.088 2.18-8.941 2.559-8.561.38.38.659-8.497.621-19.726-.039-11.23-.418-19.529-.842-18.443-.579 1.481-.944.667-1.466-3.263-1.224-9.226-5.547-22.404-11.076-33.763-12.268-25.2-31.847-45.225-56.546-57.833C165.681 2.733 153.705.016 127.5.116c-11.255.042-21.65.601-25.5 1.369m7.686 54.631c-4.096 2.382-3.746 4.498 4.927 29.819 4.603 13.44 8.936 24.796 9.628 25.235 1.932 1.227 6.394.978 7.534-.42.795-.974 14.225-38.045 14.225-39.265 0-.159-1.379-.77-3.066-1.358-2.691-.938-3.027-1.469-2.75-4.348.279-2.89.702-3.316 3.566-3.592 2.744-.265 3.25.017 3.25 1.809 0 1.167.45 1.844 1 1.504 1.721-1.064 1.092-6.408-1-8.5-1.844-1.844-3.311-1.998-18.75-1.97-9.878.018-17.494.464-18.564 1.086M125.2 57.2c-1.623 1.623-1.517 5.292.194 6.712 1.076.893 1.76.791 3-.449 1.895-1.895 1.864-1.655.631-4.898-1.077-2.833-2.021-3.169-3.825-1.365m8.132 2.378c-.333.867.055 2.238.863 3.046 1.292 1.292 1.75 1.241 3.796-.416 1.323-1.071 2.017-2.386 1.609-3.046-1.058-1.712-5.566-1.413-6.268.416m-21.97 3.922c-.795 2.072.284 4.5 2 4.5s2.795-2.428 2-4.5c-.317-.825-1.217-1.5-2-1.5-.784 0-1.684.675-2 1.5m-18.541 1.75c-.859.688-3.645 3.855-6.192 7.039-6.756 8.448-6.487 9.854 3.621 18.936C108.795 107.889 113.988 112 116.495 112c1.378 0 2.505-.447 2.505-.993s-1.628-5.06-3.617-10.031c-3.124-7.805-3.786-8.807-4.856-7.344-1.547 2.116-4.527 1.144-4.527-1.478 0-2.111 2.307-4.513 3.342-3.479 1.515 1.515.401-2.072-3.794-12.225-2.449-5.925-5.036-11.143-5.75-11.596-1.915-1.215-5.198-1.028-6.977.396m62.996-.042C154.212 66.442 137 108.078 137 110.727c0 .7 1.127 1.273 2.505 1.273 1.797 0 7.029-3.978 18.5-14.066 19.044-16.747 18.844-16.229 10.206-26.531-6.006-7.162-9.115-8.716-12.394-6.195m-38.408 3.17c-1.271 3.312.003 5.122 3.605 5.122 3.207 0 3.486-.24 3.486-3 0-2.655-.375-3.036-3.257-3.314-2.196-.212-3.445.177-3.834 1.192m20.975 4.064c-.901 2.347.014 5.011 1.842 5.363 1.828.352 3.503-3.817 2.309-5.748-.947-1.533-3.506-1.296-4.151.385m15.568.116c-1.19 1.433-1.111 1.853.578 3.088 2.97 2.171 5.97 1.344 5.97-1.646 0-1.945-.574-2.567-2.586-2.801-1.497-.174-3.165.398-3.962 1.359m-64.83 3.72c-2.193 2.193-.257 6.095 2.5 5.037C92.38 81.024 93 79.757 93 78.5c0-2.615-2.216-3.884-3.878-2.222m6.21 1.3c-.419 1.09.03 2.213 1.236 3.096 2.718 1.987 4.932 1.229 4.932-1.688 0-1.97-.572-2.552-2.756-2.803-1.881-.216-2.964.226-3.412 1.395m27.004-.011c-.768 2.002.542 3.301 3.685 3.654 2.045.23 2.534-.203 2.795-2.471.285-2.476.009-2.75-2.781-2.75-1.89 0-3.332.611-3.699 1.567m11.253 4.061c-.875 2.28 1.939 5.244 3.498 3.685 1.512-1.512.743-4.722-1.223-5.101-.887-.17-1.911.467-2.275 1.416m18 0c-.875 2.28 1.939 5.244 3.498 3.685 1.512-1.512.743-4.722-1.223-5.101-.887-.17-1.911.467-2.275 1.416m7.768-.115c-.753 1.962 1.366 4.487 3.765 4.487 1.42 0 1.878-.732 1.878-3 0-2.543-.385-3-2.531-3-1.393 0-2.793.681-3.112 1.513m-62.021 5.054c-.331.862-.122 2.047.464 2.633 1.555 1.555 4.2.19 4.2-2.169 0-2.466-3.753-2.839-4.664-.464m27.024 3.937c-.85 2.216 2.201 5.335 3.727 3.809 1.556-1.556.72-4.726-1.352-5.125-.957-.185-2.026.407-2.375 1.316m23.307-.837c-1.05 1.05-.779 4.146.429 4.892 1.556.962 4.297-2.093 3.572-3.981-.618-1.612-2.803-2.11-4.001-.911m-63.426 3.591C81.672 96.479 80 101.315 80 105.527c0 3.781.535 5.162 2.923 7.55 1.608 1.608 3.618 2.923 4.467 2.923.849 0 3.823-2.025 6.61-4.5 2.787-2.475 5.817-4.5 6.733-4.5 1.036 0-.397-1.838-3.783-4.856-10.824-9.644-11.646-10.219-12.709-8.886m77.868 5.949c-7.594 6.659-8.05 7.271-5.992 8.032 1.225.453 4.165 2.61 6.533 4.793 4.987 4.596 6.26 4.809 9.923 1.659 4.13-3.553 4.54-10.936.947-17.066-1.49-2.544-2.818-4.625-2.951-4.625s-3.94 3.243-8.46 7.207m-80.147.339c-1.182 1.424-1.037 1.893 1.087 3.526 1.348 1.036 3.014 1.894 3.701 1.906.688.012 1.25.642 1.25 1.4 0 1.994 2.351 3.641 3.864 2.706 1.777-1.098 1.058-6.584-.864-6.584-.825 0-1.961-.9-2.525-2-1.315-2.565-4.758-3.069-6.513-.954m60.541.445c-1.117 3.519 1.696 5.41 4.25 2.856.794-.794.845-1.73.165-3-1.301-2.431-3.622-2.355-4.415.144m27.042-.132c-.753 2.371.292 5.141 1.94 5.141 2.055 0 3.732-2.74 3.03-4.952-.811-2.557-4.178-2.685-4.97-.189M.422 128c0 11.275.146 15.887.324 10.25.178-5.637.178-14.862 0-20.5S.422 116.725.422 128m73.019.096c-.373.603-.062 1.711.691 2.464 1.734 1.734 4.398.263 3.545-1.959-.703-1.832-3.23-2.133-4.236-.505m-22.367 21.758c-.67 6.405-1.459 12.658-1.754 13.896-.423 1.772-.105 2.25 1.5 2.25 1.718 0 2.143-.859 2.723-5.5l.687-5.5h3.663c4.837 0 7.792-2.218 9.196-6.903.912-3.045.864-4.422-.233-6.714-1.303-2.719-1.756-2.891-7.973-3.029l-6.591-.146-1.218 11.646M72.69 138.75c-.858 1.506-1.734 12.971-1.114 14.587.922 2.404 21.169 2.492 22.088.096.331-.862.06-2.1-.603-2.75-.93-.914-1.131-.842-.882.317.241 1.127-.736 1.547-3.929 1.69-2.338.104-4.25-.261-4.25-.81 0-.55 2.25-3.379 5-6.286 2.75-2.908 5-5.806 5-6.441 0-.753-2.265-1.153-6.531-1.153-5.008 0-6.672.366-7.133 1.567-.331.862-.06 2.1.603 2.75.93.914 1.131.842.882-.317-.241-1.126.734-1.547 3.912-1.689 4.141-.185 4.202-.142 2.79 2-2.701 4.096-10.642 10.857-12.097 10.299-1.577-.605-1.692-2.767-.525-9.86.689-4.183.569-4.75-1.001-4.75-.98 0-1.974.338-2.21.75m24.646.817c-.331.862-.092 2.077.531 2.7.844.844 1.133.715 1.133-.504 0-1.253.94-1.625 4-1.582 2.2.03 4 .276 4 .547 0 .27-2.25 2.953-5 5.962-6.764 7.401-6.596 8.31 1.531 8.31 5.008 0 6.672-.366 7.133-1.567.331-.862.065-2.1-.59-2.75-.921-.913-1.041-.784-.526.567.575 1.51.034 1.75-3.941 1.75-2.578 0-4.607-.467-4.607-1.06 0-.583 2.25-3.439 5-6.346 2.75-2.908 5-5.806 5-6.441 0-.753-2.265-1.153-6.531-1.153-5.008 0-6.672.366-7.133 1.567m21.32-.434c-1.014.589-2.498 2.639-3.299 4.555-3.045 7.287 1.873 13.174 8.815 10.553 1.663-.627 3.051-.69 3.383-.153.919 1.488 6.096 1.038 7.497-.651 1.177-1.418 1.379-1.418 2.173 0 1.033 1.846 5.861 2.077 7.575.363 1.843-1.843 1.428-6.241-.865-9.155-1.136-1.444-1.784-3.08-1.441-3.635.881-1.426 4.249-1.257 4.798.24.349.952.753.973 1.696.087 2.154-2.024.172-3.174-5.385-3.124l-5.38.048-.671 5.12c-.762 5.806-2.831 9.619-5.222 9.619-1.41 0-1.54-.986-.989-7.5l.633-7.5-5.737.03c-3.155.017-6.567.513-7.581 1.103m34.829 6.02c-.76 7.568.151 9.847 3.937 9.847 4.71 0 6.175-5.7 2.625-10.213-1.474-1.873-1.67-2.764-.8-3.634 1.515-1.515 3.471-1.468 4.045.097.349.952.753.973 1.696.087 2.157-2.026.17-3.174-5.408-3.124l-5.403.048-.692 6.892m17.438-4.23c-3.516 3.516-3.824 7.662-.85 11.442 2.599 3.305 7.925 3.543 12.799.572l3.372-2.056 2.193 2.059c3.47 3.261 9.649 2.801 14.028-1.044 1.944-1.707 3.521-3.619 3.503-4.25-.018-.656-.552-.485-1.25.4-4.15 5.266-10.665 6.49-13.283 2.495-2.983-4.552 1.338-13.436 5.314-10.928 2.608 1.646 2.575 3.154-.13 5.859-2.129 2.128-2.249 2.528-.762 2.528 2.335 0 6.143-3.619 6.143-5.839 0-2.775-2.08-4.161-6.245-4.161-4.572 0-8.468 3.316-9.406 8.005-1.727 8.637-14.349 9.272-14.349.722 0-3.528 3.951-8.067 6.253-7.183 2.38.913 2.22 5.144-.253 6.688-3.13 1.955-2.342 2.996.97 1.283 2.549-1.318 5.03-4.217 5.03-5.878 0-1.638-3.654-3.637-6.648-3.637-2.542 0-4.31.804-6.429 2.923m-49.611.327c-3.871 4.277-3.548 11.75.508 11.75 2.814 0 4.859-2.967 5.6-8.127.54-3.753.359-4.744-.959-5.25-2.478-.95-2.952-.801-5.149 1.627m-64.272.202c-1.788 2.154-2.58 10.096-1.099 11.012 4.041 2.497 9.287-4.058 7.449-9.308-1.078-3.077-4.458-3.984-6.35-1.704m83.96 7.621c0 3.34.315 4.014 1.75 3.74 2.117-.403 2.866-4.366 1.204-6.368-2.03-2.446-2.954-1.623-2.954 2.628m16 0c0 3.34.315 4.014 1.75 3.74 2.117-.403 2.866-4.366 1.204-6.368-2.03-2.446-2.954-1.623-2.954 2.628" fill="#1976D2" fill-rule="evenodd"/><path fill-opacity=".653" d="M104 1.544c-9.332 1.698-21.044 5.492-30.638 9.924C48.516 22.948 24.505 46.613 12.455 71.5 3.4 90.199 0 105.487 0 127.5c0 22.547 3.702 38.935 13.108 58.033 15.856 32.195 46.847 57.224 82.605 66.714 11.275 2.992 12.656 3.131 31.787 3.187 18.531.054 20.779-.14 30.612-2.635 36.397-9.238 65.968-32.273 83.313-64.896 5.378-10.116 11.179-27.011 12.824-37.351.661-4.154 1.55-7.552 1.976-7.552.426 0 .743-7.537.705-16.75-.039-9.213-.387-15.948-.775-14.968-.45 1.14-1.162-1.13-1.975-6.301-1.751-11.13-6.224-24.291-12.225-35.973-18.124-35.283-51.349-59.935-90.889-67.436C140.772-.381 114.664-.396 104 1.544m13 2.514C79.925 7.302 45.111 28.022 24.383 59.18c-9.1 13.679-17.513 35.119-18.858 48.057-.384 3.701.039 2.591 1.427-3.737 5.505-25.105 16.217-44.851 33.957-62.591C60.073 21.745 83.687 9.787 109.951 5.947c12.981-1.898 36.284-.744 48.298 2.392 32.367 8.449 59.316 28.932 76.523 58.161 16.96 28.809 20.949 67.661 10.23 99.653-14.805 44.19-51.938 75.989-97.33 83.351-54.263 8.801-108.616-19.977-131.57-69.661C8.54 163.475 5.892 151.439 5.026 129.5l-.672-17-.177 14.119c-.113 9.035.38 17.315 1.371 22.996 7.698 44.144 39.927 81.586 82.452 95.787 37.596 12.556 76.649 7.26 110-14.915 9.628-6.402 26.085-22.859 32.487-32.487 15.636-23.516 22.231-46.879 21.171-75-1.25-33.18-13.858-61.448-37.627-84.361C187.902 13.45 152.764.928 117 4.058M108 57c-1.1 1.1-1.983 2.788-1.963 3.75.02.962 3.758 12.547 8.306 25.743 7.047 20.448 8.653 24.209 10.87 25.453 2.02 1.134 3.146 1.212 5.04.348 2.036-.927 3.528-4.235 9.001-19.953 3.608-10.362 6.905-19.707 7.327-20.765.584-1.466.413-1.788-.719-1.353-2.403.922-6.098-2.51-5.705-5.297.276-1.951.929-2.426 3.333-2.426 2.523 0 3.084.469 3.588 3l.598 3 .845-3c1.169-4.15.875-6.405-1.122-8.612-1.554-1.716-3.331-1.888-19.554-1.888-16.512 0-17.994.149-19.845 2m16.563 1.802c-.854 2.69.383 5.355 2.313 4.983 2.262-.435 2.227-6.142-.041-6.578-.951-.183-1.925.501-2.272 1.595m9.137.539c-.853 2.222.849 3.937 3.175 3.199 3.041-.965 2.829-4.54-.268-4.54-1.316 0-2.625.603-2.907 1.341m-22.306 4.076c-.828 2.157.323 4.844 1.857 4.333.687-.229 1.249-1.467 1.249-2.75 0-2.741-2.227-3.876-3.106-1.583m-23.337 6.61c-6.274 7.539-7.372 9.584-6.662 12.411.674 2.685 31.071 29.37 34.428 30.225 1.278.325 2.725.189 3.216-.302.902-.902-15.74-44.091-18.072-46.901-.667-.803-2.715-1.46-4.553-1.46-2.864 0-4.058.861-8.357 6.027m66.749-4.277c-.827.963-5.422 11.602-10.211 23.644-11.738 29.512-10.724 30.257 12.905 9.489 14.26-12.533 17.384-15.855 17.465-18.574.019-.655-2.702-4.592-6.046-8.75-5.331-6.626-6.484-7.559-9.345-7.559-1.869 0-3.907.748-4.768 1.75m-36.619 4.5c.353 3.666 3.551 4.975 5.733 2.346 2.072-2.496.382-5.596-3.051-5.596-2.777 0-2.973.237-2.682 3.25m20.48 1.417c-1.148 1.147-.73 4.036.763 5.275 1.146.951 1.657.763 2.57-.941 1.553-2.902-1.194-6.474-3.333-4.334M154 73.828c0 2.417 4.868 3.987 6.139 1.98 1.352-2.134.406-3.288-2.966-3.621-2.589-.256-3.173.046-3.173 1.641m-65.282 3.464c-.293.764-.17 1.977.274 2.694 1.121 1.815 4.232.414 3.82-1.721-.415-2.159-3.369-2.861-4.094-.973m6.644.208c-.847 2.207.89 3.743 3.773 3.335 1.587-.225 2.365-.993 2.365-2.335 0-2.613-5.195-3.459-6.138-1m27.146-.514c-1.028 1.665 1.42 4.014 4.184 4.014 3.63 0 2.858-4.378-.848-4.807-1.46-.169-2.961.188-3.336.793m12.09 3.75c-.329.328-.598 1.455-.598 2.504 0 2.35 3.326 2.02 3.788-.376.314-1.63-2.087-3.232-3.19-2.128m18 0c-.329.328-.598 1.455-.598 2.504 0 2.35 3.326 2.02 3.788-.376.314-1.63-2.087-3.232-3.19-2.128m7.442.715c-.741.893-.486 1.74.901 2.995 2.183 1.977 4.059 1.335 4.059-1.388 0-2.206-3.517-3.345-4.96-1.607m-62.374 4.976c-.762 1.987 2.065 4.242 3.509 2.798 1.381-1.381.347-4.225-1.537-4.225-.783 0-1.67.642-1.972 1.427m8.923 4.201c-.875 2.28 1.939 5.244 3.498 3.685 1.512-1.512.743-4.722-1.223-5.101-.887-.17-1.911.467-2.275 1.416m19.009-.892c-.329.328-.598 1.455-.598 2.504 0 2.35 3.326 2.02 3.788-.376.314-1.63-2.087-3.232-3.19-2.128m22.449.708c-1.37 1.65-.617 3.556 1.405 3.556 1.911 0 2.667-2.657 1.121-3.939-.961-.798-1.63-.697-2.526.383m-66.458 6.752c-2.952 5.924-3.176 8.462-1.174 13.256 2.787 6.67 8.002 7.254 13.823 1.548 2.591-2.54 5.026-4.013 6.671-4.035 2.305-.031 1.652-.911-5.909-7.965-4.675-4.361-9.022-7.946-9.661-7.965-.638-.019-2.325 2.303-3.75 5.161m79.738 2.089c-4.495 3.968-8.208 7.553-8.25 7.965-.042.412.885.75 2.061.75s4.091 1.8 6.478 4c5.116 4.716 8.435 5.127 11.827 1.467 3.798-4.098 4.077-8.557.969-15.484-1.477-3.291-3.186-5.967-3.799-5.948-.612.019-4.791 3.281-9.286 7.25m-17.972.232c-.795 2.072.394 4.732 1.896 4.238.687-.226 1.385-1.332 1.552-2.456.362-2.441-2.606-3.975-3.448-1.782m27.333-.871c-.948.947-.867 5.125.11 5.729 1.532.947 3.374-1.12 3.039-3.41-.346-2.372-1.931-3.538-3.149-2.319M82 100.839c0 1.844 4.273 4.555 5.4 3.427.33-.329.6-1.649.6-2.933C88 99.407 87.476 99 85 99c-2.246 0-3 .462-3 1.839m6.657 3.612c-.876 2.284.356 4.693 2.219 4.334.976-.188 1.624-1.298 1.624-2.785 0-2.814-2.908-3.986-3.843-1.549M.409 127.5c-.001 9.35.149 13.31.334 8.799.185-4.51.186-12.16.002-17C.562 114.46.41 118.15.409 127.5m73.652-.538c-1.91 1.181-.835 4.538 1.453 4.538 1.262 0 2.096-.773 2.289-2.123.33-2.315-1.741-3.651-3.742-2.415m-22.07 10.863c-.004.371-.676 6.3-1.491 13.175-1.888 15.917-1.924 15.199.75 14.82 1.91-.272 2.295-1.019 2.55-4.945.299-4.615.308-4.626 4.5-5.188 5.637-.756 9.7-5.174 9.7-10.548 0-5.487-2.612-7.506-10.062-7.775-3.266-.118-5.942.089-5.947.461m21.285-.017c-1.687 1.072-2.892 14.745-1.452 16.48.744.896 3.981 1.396 9.856 1.522 10.594.228 12.32-.23 12.32-3.27 0-3.211-2.826-4.052-5.421-1.614-1.244 1.169-2.621 1.666-3.356 1.212-.881-.544.414-2.606 4.404-7.015 3.732-4.124 5.315-6.581 4.66-7.236-.544-.544-3.869-.854-7.389-.689-5.61.265-6.435.559-6.696 2.39-.164 1.148.411 2.676 1.279 3.396 1.332 1.105 1.962.948 4.044-1.008 1.357-1.274 2.753-2.032 3.101-1.683.687.687-4.612 7.516-5.924 7.635-.439.04-1.828 1.269-3.086 2.732-2.404 2.795-5.059 2.486-4.239-.494.253-.916.753-4.254 1.113-7.416.666-5.856-.048-6.953-3.214-4.942m24.974-.167c-1.588.668-1.616 3.593-.05 5.159 1.673 1.673 2.426 1.518 4.75-.977 1.116-1.198 2.323-1.884 2.682-1.525s-1.436 3.098-3.99 6.087C99.089 149.374 97 152.76 97 153.909c0 1.864.588 2.091 5.418 2.091 6.927 0 8.582-.675 8.582-3.5 0-3.175-2.839-4-5.421-1.574-1.16 1.09-2.638 1.656-3.284 1.257-.779-.482.669-2.689 4.31-6.571 3.016-3.215 5.316-6.355 5.11-6.978-.383-1.162-11.174-1.958-13.465-.993m22.138.355c-6.15 2.438-8.349 11.134-3.933 15.549 2.784 2.785 5.28 3.102 8.104 1.031 1.694-1.242 2.167-1.22 3.713.175 1.622 1.464 2.054 1.464 5.116.004 3.02-1.44 3.494-1.445 4.893-.045 2.132 2.131 6.483.901 7.914-2.238 1.147-2.517.599-4.49-2.415-8.694-1.724-2.406.4-4.703 2.634-2.85 1.689 1.402 3.586.651 3.586-1.42 0-1.94-3.804-2.915-5.59-1.433-1.132.939-1.776.959-2.652.083-2.128-2.128-3.662-1.192-4.253 2.592-1.071 6.853-2.507 11.037-3.982 11.603-.802.308-1.721.135-2.042-.384-.443-.716.167-9.906.926-13.963.163-.871-9.828-.879-12.019-.01m33.587 1.569c-.536 1.411-.975 5.246-.975 8.522 0 5.298.262 6.075 2.374 7.037 1.72.784 2.955.77 4.488-.05 3.236-1.732 3.694-5.467 1.191-9.71-1.512-2.561-1.843-3.974-1.106-4.711.737-.737 1.413-.693 2.253.147 1.806 1.806 3.8 1.443 3.8-.693 0-2.359-2.54-3.424-5.012-2.101-1.245.667-2.073.665-2.486-.003-1.145-1.853-3.543-1.025-4.527 1.562m18.8-1.006c-3.394 1.842-4.775 4.345-4.775 8.653 0 7.769 6.805 10.851 14.284 6.468 4.168-2.443 4.368-2.467 5.498-.657 1.836 2.939 7.506 3.543 11.893 1.266 3.986-2.069 8.142-6.806 6.985-7.962-.388-.389-1.398.282-2.244 1.489-1.667 2.381-6.423 5.184-8.795 5.184-2.414 0-4.621-2.931-4.621-6.137 0-4.323 1.678-6.863 4.535-6.863 3.174 0 3.325 3.121.288 5.95-3.041 2.833-1.579 3.674 2.38 1.371 6.546-3.809 3.324-11.474-4.135-9.836-3.621.795-8.068 5.762-8.068 9.01 0 3.13-6.034 6.964-9.566 6.078-3.533-.887-4.799-4.764-2.978-9.121.989-2.369 2.095-3.452 3.524-3.452 3.349 0 3.721 3.001.695 5.603-3.274 2.816-1.819 4.04 2.281 1.92 4.126-2.134 5.11-6.241 2.084-8.692-2.705-2.19-5.576-2.274-9.265-.272M58.176 140.87c-1.994 1.264-3.501 9.033-2.084 10.741 1.666 2.007 3.569 1.71 5.351-.834 1.849-2.639 2.045-7.889.357-9.577-1.411-1.411-1.856-1.451-3.624-.33M82 141c0 .55.675 1 1.5 1s1.5-.45 1.5-1-.675-1-1.5-1-1.5.45-1.5 1m17 0c0 .55.675 1 1.5 1s1.5-.45 1.5-1-.675-1-1.5-1-1.5.45-1.5 1m21.454 1.429c-1.971 3.009-1.543 8.501.777 9.953 2.666 1.669 4.965-1.365 5.536-7.307.473-4.926.411-5.075-2.117-5.075-1.654 0-3.185.886-4.196 2.429m20.957 5.069c-.345 1.374-.337 3.253.018 4.177.574 1.496.81 1.515 2.149.176 1.163-1.163 1.273-2.112.488-4.178-1.264-3.325-1.855-3.364-2.655-.175m16.231.541c-.696 3.48.405 5.668 2.271 4.515 1.488-.92 1.365-3.791-.258-6.012-1.243-1.7-1.396-1.586-2.013 1.497M89 152c0 .55.675 1 1.5 1s1.5-.45 1.5-1-.675-1-1.5-1-1.5.45-1.5 1m17 0c0 .55.648 1 1.441 1s1.719-.45 2.059-1c.34-.55-.309-1-1.441-1-1.132 0-2.059.45-2.059 1m-32.645 34.5c-.003 4.95.166 7.101.376 4.78.209-2.321.212-6.371.005-9-.206-2.629-.378-.73-.381 4.22m60 0c-.003 4.95.166 7.101.376 4.78.209-2.321.212-6.371.005-9-.206-2.629-.378-.73-.381 4.22m19.724-6.917c.048 1.165.285 1.402.604.605.289-.722.253-1.585-.079-1.917-.332-.332-.568.258-.525 1.312M56.3 189c0 3.025.187 4.262.416 2.75.229-1.512.229-3.988 0-5.5s-.416-.275-.416 2.75m81.334-3c.337 1.375 1.228 3.85 1.979 5.5 1.097 2.409 1.246 2.508.753.5-.337-1.375-1.228-3.85-1.979-5.5-1.097-2.409-1.246-2.508-.753-.5m-87.967-.333c-.913.912-.846 7.105.083 7.678.413.255.75-1.518.75-3.94 0-2.423-.038-4.405-.083-4.405-.046 0-.384.3-.75.667M78.3 190c0 3.025.187 4.262.416 2.75.229-1.512.229-3.988 0-5.5s-.416-.275-.416 2.75m5.307-3.418c-.836 2.179-.761 5.206.143 5.759.412.253.772-1.296.799-3.441.054-4.334-.06-4.615-.942-2.318M95.3 190c0 3.025.187 4.262.416 2.75.229-1.512.229-3.988 0-5.5s-.416-.275-.416 2.75m16.972-1c0 2.475.195 3.488.434 2.25.238-1.238.238-3.262 0-4.5-.239-1.238-.434-.225-.434 2.25m5.807.25c-.043 2.613.281 4.75.72 4.75.44 0 .632-1.687.428-3.75-.576-5.805-1.061-6.228-1.148-1m4.921-2.686c0 .751.925 1.861 2.056 2.466 1.131.605 2.453 2.084 2.937 3.285.748 1.858.89 1.908.944.336.034-1.017-1.287-3.11-2.937-4.651-1.835-1.714-3-2.272-3-1.436m30.286 2.936c.008 2.75.202 3.756.432 2.236.229-1.52.223-3.77-.014-5-.237-1.23-.425.014-.418 2.764m6.689-.296c-.265 2.586-.112 4.333.34 3.881.452-.452.669-2.568.482-4.703l-.339-3.882-.483 4.704m37.454-1.776c-.335 1.335-.133 3.247.45 4.25.868 1.492 1.066 1.053 1.091-2.428.033-4.736-.617-5.506-1.541-1.822m7.392 1.647c-.213 2.241-.036 4.292.395 4.559.431.266.784-1.568.784-4.075 0-5.66-.659-5.931-1.179-.484m-136.742-1.492c.048 1.165.285 1.402.604.605.289-.722.253-1.585-.079-1.917-.332-.332-.568.258-.525 1.312m31.427.397c-.345 1.089-.164 2.776.403 3.75.841 1.444 1.036 1.08 1.061-1.98.033-4.145-.504-4.794-1.464-1.77m7.746 1.52c.011 2.2.216 2.982.455 1.738.239-1.244.23-3.044-.02-4s-.446.062-.435 2.262m64.034 1c.008 2.75.202 3.756.432 2.236.229-1.52.223-3.77-.014-5-.237-1.23-.425.014-.418 2.764m15.381-3.833c-.948.948-.798 4.578.258 6.246.599.947.842.04.735-2.744-.088-2.287-.197-4.16-.243-4.163-.046-.003-.384.294-.75.661m6.333.833c0 .825.436 1.5.969 1.5.532 0 .709-.675.393-1.5-.317-.825-.753-1.5-.969-1.5-.216 0-.393.675-.393 1.5m-132 2.274c0 1.71.443 3.382.985 3.717.615.38.749-.63.356-2.691-.842-4.422-1.341-4.803-1.341-1.026m118.874-.274c1.45 2.96 4.058 6.15 4.089 5 .015-.55-1.119-2.35-2.521-4-1.401-1.65-2.107-2.1-1.568-1M164 191.941c0 .518.445 1.216.989 1.552.566.35.734-.051.393-.941-.665-1.732-1.382-2.049-1.382-.611" fill="#1976D2" fill-rule="evenodd"/><path fill-opacity=".51" d="M114.25.689c.963.252 2.537.252 3.5 0 .963-.251.175-.457-1.75-.457s-2.713.206-1.75.457m24 0c.963.252 2.537.252 3.5 0 .963-.251.175-.457-1.75-.457s-2.713.206-1.75.457m-31.5.973c.688.278 1.813.278 2.5 0 .688-.277.125-.504-1.25-.504s-1.937.227-1.25.504m40.063.021c.721.289 1.584.253 1.916-.079.332-.332-.258-.568-1.312-.525-1.165.048-1.402.285-.604.604m-45 1c.721.289 1.584.253 1.916-.079.332-.332-.258-.568-1.312-.525-1.165.048-1.402.285-.604.604m51 0c.721.289 1.584.253 1.916-.079.332-.332-.258-.568-1.312-.525-1.165.048-1.402.285-.604.604m-56 1c.721.289 1.584.253 1.916-.079.332-.332-.258-.568-1.312-.525-1.165.048-1.402.285-.604.604m16.937-.021c.688.278 1.813.278 2.5 0 .688-.277.125-.504-1.25-.504s-1.937.227-1.25.504m25 0c.688.278 1.813.278 2.5 0 .688-.277.125-.504-1.25-.504s-1.937.227-1.25.504m-31.937 1.021c.721.289 1.584.253 1.916-.079.332-.332-.258-.568-1.312-.525-1.165.048-1.402.285-.604.604m40 0c.721.289 1.584.253 1.916-.079.332-.332-.258-.568-1.312-.525-1.165.048-1.402.285-.604.604m-28.544 1.01c.973.254 2.323.237 3-.037.677-.274-.119-.481-1.769-.461-1.65.02-2.204.244-1.231.498m14.981-.004c.963.252 2.537.252 3.5 0 .963-.251.175-.457-1.75-.457s-2.713.206-1.75.457m-24.437.994c.721.289 1.584.253 1.916-.079.332-.332-.258-.568-1.312-.525-1.165.048-1.402.285-.604.604m36 0c.721.289 1.584.253 1.916-.079.332-.332-.258-.568-1.312-.525-1.165.048-1.402.285-.604.604M179 11c.825.533 1.95.969 2.5.969s.325-.436-.5-.969c-.825-.533-1.95-.969-2.5-.969s-.325.436.5.969m10 4.43c0 .275.9.981 2 1.57 1.1.589 2 .845 2 .57s-.9-.981-2-1.57c-1.1-.589-2-.845-2-.57M62.441 17.555c-1.864 1.494-1.852 1.512.309.465 1.237-.6 2.25-1.3 2.25-1.555 0-.765-.519-.544-2.559 1.09M194 18.43c0 .275.9.981 2 1.57 1.1.589 2 .845 2 .57s-.9-.981-2-1.57c-1.1-.589-2-.845-2-.57m5 2.948c0 .207.787.995 1.75 1.75 1.586 1.243 1.621 1.208.378-.378-1.307-1.666-2.128-2.195-2.128-1.372M51.872 24.75c-1.243 1.586-1.208 1.621.378.378.962-.755 1.75-1.543 1.75-1.75 0-.823-.821-.294-2.128 1.372m-4 3c-1.243 1.586-1.208 1.621.378.378.962-.755 1.75-1.543 1.75-1.75 0-.823-.821-.294-2.128 1.372M207.5 28c.995 1.1 2.035 2 2.31 2 .275 0-.315-.9-1.31-2-.995-1.1-2.035-2-2.31-2-.275 0 .315.9 1.31 2m-155.628.75c-1.243 1.586-1.208 1.621.378.378.962-.755 1.75-1.543 1.75-1.75 0-.823-.821-.294-2.128 1.372M202 27.378c0 .207.787.995 1.75 1.75 1.586 1.243 1.621 1.208.378-.378-1.307-1.666-2.128-2.195-2.128-1.372m-2 1c0 .207.787.995 1.75 1.75 1.586 1.243 1.621 1.208.378-.378-1.307-1.666-2.128-2.195-2.128-1.372M37 37.5c-4.097 4.125-7.225 7.5-6.95 7.5.275 0 3.853-3.375 7.95-7.5 4.097-4.125 7.225-7.5 6.95-7.5-.275 0-3.853 3.375-7.95 7.5m10.405-5.25L45.5 34.5l2.25-1.905C49.864 30.805 50.455 30 49.655 30c-.19 0-1.202 1.012-2.25 2.25m2.467.5c-1.243 1.586-1.208 1.621.378.378.962-.755 1.75-1.543 1.75-1.75 0-.823-.821-.294-2.128 1.372M209 33.5c1.292 1.375 2.574 2.5 2.849 2.5.275 0-.557-1.125-1.849-2.5-1.292-1.375-2.574-2.5-2.849-2.5-.275 0 .557 1.125 1.849 2.5m9 4c3.543 3.575 6.667 6.5 6.942 6.5.275 0-2.399-2.925-5.942-6.5s-6.667-6.5-6.942-6.5c-.275 0 2.399 2.925 5.942 6.5M206.5 34c.995 1.1 2.035 2 2.31 2 .275 0-.315-.9-1.31-2-.995-1.1-2.035-2-2.31-2-.275 0 .315.9 1.31 2M38.946 39.75 35.5 43.5l3.75-3.446c2.063-1.896 3.75-3.583 3.75-3.75 0-.764-.846-.044-4.054 3.446m1.516 1.5L35.5 46.5l5.25-4.962c2.888-2.73 5.25-5.092 5.25-5.25 0-.747-.926.084-5.538 4.962M212 38.313c0 .172 1.463 1.635 3.25 3.25l3.25 2.937-2.937-3.25c-2.738-3.029-3.563-3.71-3.563-2.937m10 8.187c1.292 1.375 2.574 2.5 2.849 2.5.275 0-.557-1.125-1.849-2.5-1.292-1.375-2.574-2.5-2.849-2.5-.275 0 .557 1.125 1.849 2.5M27.405 48.25 25.5 50.5l2.25-1.905c1.238-1.048 2.25-2.06 2.25-2.25 0-.8-.805-.209-2.595 1.905m4 0L29.5 50.5l2.25-1.905C33.864 46.805 34.455 46 33.655 46c-.19 0-1.202 1.013-2.25 2.25M227.5 48c.995 1.1 2.035 2 2.31 2 .275 0-.315-.9-1.31-2-.995-1.1-2.035-2-2.31-2-.275 0 .315.9 1.31 2m-6 1c.995 1.1 2.035 2 2.31 2 .275 0-.315-.9-1.31-2-.995-1.1-2.035-2-2.31-2-.275 0 .315.9 1.31 2M31.872 50.75c-1.243 1.586-1.208 1.621.378.378.962-.755 1.75-1.543 1.75-1.75 0-.823-.821-.294-2.128 1.372m-8 2c-1.243 1.586-1.208 1.621.378.378C25.916 51.821 26.445 51 25.622 51c-.207 0-.995.788-1.75 1.75m83.302 3.564c-1.196 1.273-2.174 3.185-2.174 4.249 0 2.278 10.028 32.742 10.592 32.178.212-.212-1.86-7.085-4.604-15.275-2.743-8.19-4.988-15.851-4.988-17.024 0-2.597 2.629-5.101 6-5.715l2.5-.455-2.576-.136c-1.533-.081-3.456.801-4.75 2.178m39.063-.749c3.009 1.633 4.302 5.021 3.288 8.613-.509 1.802-.421 1.986.394.822.578-.825 1.057-2.533 1.066-3.795.016-2.484-4.084-7.23-6.19-7.165-.712.022-.063.708 1.442 1.525m87.274.812c.946 1.443 1.908 2.623 2.139 2.623.724 0-1.605-3.854-2.759-4.567-.604-.374-.325.501.62 1.944M125.18 60.163c.419 4.367 3.32 4.673 3.32.351 0-2.093-.545-3.091-1.82-3.337-1.513-.292-1.766.212-1.5 2.986m.82.396c0 1.451.433 2.292 1 1.941.55-.34 1-1.491 1-2.559S127.55 58 127 58s-1 1.152-1 2.559m8-.618c0 2.693 1.892 3.596 3.714 1.773 1.823-1.822.92-3.714-1.773-3.714-1.255 0-1.941.686-1.941 1.941m1 .642c0 .871.534 1.406 1.188 1.188 1.854-.618 2.161-2.771.395-2.771-.87 0-1.583.712-1.583 1.583m-37.001 3.169c2.327 1.163 4.233 3.255 5.691 6.248 1.205 2.475 2.219 4.158 2.251 3.739.174-2.237-4.373-9.615-6.532-10.599-4.028-1.835-5.247-1.306-1.41.612m62.648-.304c1.732.753 5.525 4.335 8.43 7.961 5.429 6.774 6.763 8.029 4.964 4.668-2.103-3.93-12.632-14.076-14.568-14.038-1.428.028-1.104.417 1.174 1.409m-68.809.802c-.849.688-3.86 4.086-6.691 7.552-6.145 7.524-6.497 10.21-1.951 14.9C84.954 88.516 85.861 90 85.211 90c-.65 0-2.588 2.784-4.306 6.187-3.895 7.718-3.685 13.345.668 17.889 4.118 4.298 7.995 3.975 12.927-1.076 3.222-3.3 4.581-4 7.762-4 2.121 0 3.632-.363 3.358-.806-1.266-2.048-7.534.133-11.214 3.903-4.627 4.738-8.807 5.234-12.348 1.465-3.64-3.875-3.844-10.068-.547-16.629 1.501-2.988 2.884-5.604 3.073-5.813.188-.209 4.462 3.272 9.497 7.736s9.518 7.892 9.962 7.618c.443-.275 2.893 1.307 5.443 3.513 5.043 4.365 8.801 5.127 10.654 2.161 1.125-1.802 1.206-1.802 3.008 0 2.744 2.744 7.292 2.379 9.779-.783 1.883-2.393 2.073-2.449 2.073-.607 0 2.074 1.78 3.242 4.941 3.242.978 0 3.834-1.811 6.348-4.023 2.514-2.213 5.02-3.901 5.569-3.75.549.15 3.795-2.173 7.214-5.163 3.419-2.99 7.48-6.499 9.024-7.799l2.808-2.362 3.039 5.298c1.671 2.915 3.042 4.782 3.048 4.149.005-.632-1.49-3.376-3.321-6.098l-3.33-4.948 2.83-3.168c1.556-1.742 2.789-4.173 2.74-5.402-.071-1.754-.286-1.56-1 .904C173.696 85.827 142.857 113 139.316 113c-3.163 0-3.702-1.831-1.847-6.271 1.725-4.129 1.989-5.986.531-3.729-1.445 2.236-1.2-.183.511-5.03.831-2.355 1.327-4.465 1.103-4.689-.224-.225-1.586 3.13-3.026 7.455-3.312 9.944-4.918 12.264-8.49 12.264-3.688 0-5.689-2.401-8.202-9.842-2.162-6.402-3.373-8.17-2.334-3.408.462 2.118.355 2.405-.466 1.25-1.613-2.271-1.313-.625.918 5.036 2.249 5.705 1.971 6.964-1.534 6.964-1.668 0-7.458-4.445-18.941-14.541C78.083 81.354 78.272 81.796 86.18 71.95c2.85-3.548 5.887-6.998 6.75-7.668.864-.67 1.319-1.233 1.011-1.25-.307-.018-1.254.531-2.103 1.218M111.5 64c-.837 1.354.292 3 2.059 3 .793 0 1.441-.9 1.441-2 0-2.07-2.413-2.76-3.5-1m34.287 2c.337 2.296.054 3-1.206 3-.905 0-2.052-1.013-2.55-2.25l-.904-2.25-.064 2.275c-.048 1.749.631 2.414 2.937 2.875 1.65.33 3 .684 3 .787 0 .103-1.348 4.175-2.995 9.047-1.647 4.873-2.818 9.036-2.603 9.251.31.31 5.086-13.183 7.339-20.735.398-1.333.328-1.333-.631 0-.859 1.194-1.082.837-1.095-1.75-.008-1.787-.387-3.25-.842-3.25-.455 0-.628 1.35-.386 3m7.202.25c-1.09 1.787-1.965 3.7-1.945 4.25.02.55.765-.35 1.655-2 .891-1.65 2.335-3.548 3.21-4.218 1.071-.82 1.177-1.229.326-1.25-.695-.018-2.156 1.431-3.246 3.218M112 65c0 .55.45 1 1 1s1-.45 1-1-.45-1-1-1-1 .45-1 1m129.705 5.472c1.477 3.01 2.852 5.304 3.057 5.099.449-.449-4.595-10.571-5.268-10.571-.26 0 .735 2.462 2.211 5.472M237 68c.589 1.1 1.295 2 1.57 2 .275 0 .019-.9-.57-2s-1.295-2-1.57-2c-.275 0-.019.9.57 2m-118.291-.376c-1.006 1.006-.882 5.376.152 5.376.474 0 .647-1.125.384-2.5-.384-2.009-.076-2.5 1.572-2.5 1.407 0 2.188.789 2.488 2.512.402 2.301.428 2.28.317-.25-.087-1.968-.709-2.846-2.163-3.054-1.123-.161-2.36.027-2.75.416m20.292 4.874c-1.499 1.807-.621 4.502 1.468 4.502.957 0 1.531-.916 1.531-2.441 0-3.048-1.388-4.002-2.999-2.061m.53.795c-.428.986-.497 2.074-.155 2.417 1.016 1.015 1.835-.411 1.367-2.382-.414-1.747-.468-1.748-1.212-.035m5.044 12.782c-3.117 7.791-5.503 14.331-5.301 14.533.202.202 2.914-6.012 6.026-13.808 3.112-7.796 5.498-14.336 5.301-14.533-.197-.196-2.909 6.017-6.026 13.808m9.871-12.988c-.838 1.357.437 2.643 3.054 3.079 1.441.241 2.089-.295 2.32-1.916.258-1.821-.16-2.25-2.191-2.25-1.381 0-2.813.489-3.183 1.087m.554.796c0 .486.9 1.119 2 1.407 1.3.34 2 .03 2-.884 0-.773-.9-1.406-2-1.406s-2 .398-2 .883M106.031 75.5c0 .55.436 1.675.969 2.5.533.825.969 1.05.969.5s-.436-1.675-.969-2.5c-.533-.825-.969-1.05-.969-.5M89 78.5c0 2.596 2.409 3.524 3.246 1.25.688-1.872-.228-3.75-1.829-3.75C89.572 76 89 77.01 89 78.5m37.557-1.082c1.067.78 1.637 1.721 1.267 2.092-1.068 1.068-4.927-.534-4.184-1.737.426-.689.195-.789-.637-.275-1.02.63-.902 1.103.537 2.155 1.013.741 2.445 1.347 3.183 1.347 1.94 0 2.815-3.046 1.173-4.086-2.298-1.455-3.433-1.027-1.339.504M90 78.559c0 .857.457 1.276 1.016.931.559-.346.758-1.047.441-1.559C90.6 76.544 90 76.802 90 78.559m5.543-.628c-.317.512-.193 1.167.274 1.456.467.289.85-.13.85-.931 0-1.686-.316-1.833-1.124-.525m4.971.232c.423 1.11.027 1.819-1.191 2.134-1.563.404-1.582.488-.132.587 2.234.153 3.338-1.757 1.863-3.221-.894-.886-1.022-.768-.54.5m7.517 2.337c0 .55.436 1.675.969 2.5.533.825.969 1.05.969.5s-.436-1.675-.969-2.5c-.533-.825-.969-1.05-.969-.5m26.142 2.159c.195 1.013 1.023 1.841 1.841 1.841 2.143 0 1.834-2.906-.355-3.327-1.336-.257-1.743.15-1.486 1.486m18 0c.195 1.013 1.023 1.841 1.841 1.841 2.143 0 1.834-2.906-.355-3.327-1.336-.257-1.743.15-1.486 1.486m7.827-.218c0 .793.445 1.716.989 2.052.566.35.734-.051.393-.941-.396-1.031-.02-1.552 1.118-1.552 1.113 0 1.512.526 1.138 1.5-.316.825-.139 1.5.393 1.5.533 0 .969-.9.969-2 0-1.467-.667-2-2.5-2-1.51 0-2.5.571-2.5 1.441M135 83c0 .55.45 1 1 1s1-.45 1-1-.45-1-1-1-1 .45-1 1m18 0c0 .55.45 1 1 1s1-.45 1-1-.45-1-1-1-1 .45-1 1m-54.62 3.452c-.306.799-.252 1.946.12 2.549.978 1.581 3.536-.743 2.834-2.574-.708-1.843-2.242-1.83-2.954.025m11.734-.952c.019.55.9 2.8 1.958 5 1.058 2.2 1.643 2.875 1.301 1.5-.705-2.831-3.311-8.03-3.259-6.5M99 87.559c0 .857.457 1.276 1.016.931.559-.346.758-1.047.441-1.559C99.6 85.544 99 85.802 99 87.559m8.362 2.941c-.317.825-.286 2.255.068 3.178.572 1.491.81 1.51 2.143.177.842-.841 1.218-2.236.857-3.177-.799-2.082-2.304-2.17-3.068-.178M92 95.913c3.575 3.367 7.85 7.049 9.5 8.182 3.747 2.574-6.558-7.082-12-11.244-2.2-1.682-1.075-.304 2.5 3.062M108 92c0 1.867.267 2.133 1.2 1.2.933-.933.933-1.467 0-2.4-.933-.933-1.2-.667-1.2 1.2m17 0c0 1.506.522 2.046 1.75 1.81.963-.186 1.75-1 1.75-1.81s-.787-1.624-1.75-1.81c-1.228-.236-1.75.304-1.75 1.81m22.5-1c-.837 1.354.292 3 2.059 3 .793 0 1.441-.9 1.441-2 0-2.07-2.413-2.76-3.5-1m13.013 6.574c-8.959 7.972-11.903 11.52-3.763 4.537 9.817-8.422 13.728-12.052 13.013-12.081-.405-.017-4.568 3.378-9.25 7.544M126 92c0 .55.45 1 1 1s1-.45 1-1-.45-1-1-1-1 .45-1 1m22 0c0 .55.45 1 1 1s1-.45 1-1-.45-1-1-1-1 .45-1 1m-33.969 3.5c0 .55.436 1.675.969 2.5.533.825.969 1.05.969.5s-.436-1.675-.969-2.5c-.533-.825-.969-1.05-.969-.5m56.567 3.236c-.329.328-.598 1.68-.598 3.004 0 3.069 3.357 2.74 3.803-.373.29-2.025-1.962-3.875-3.205-2.631M82 100.465c0 1.457 2.901 3.535 4.934 3.535.586 0 1.066-1.125 1.066-2.5 0-2.111-.467-2.5-3-2.5-1.968 0-3 .504-3 1.465m61 .476c0 1.068.399 2.188.887 2.489 1.218.753 3.438-2.095 2.64-3.386-1.095-1.771-3.527-1.153-3.527.897m28 0c0 1.132.45 2.059 1 2.059s1-.648 1-1.441-.45-1.719-1-2.059c-.55-.34-1 .309-1 1.441m-88-.048c0 .491.712 1.166 1.582 1.5 2.235.858 2.418.79 2.418-.893 0-.833-.889-1.5-2-1.5-1.1 0-2 .402-2 .893m61 .666c0 .857.45 1.281 1 .941.55-.34 1-1.041 1-1.559s-.45-.941-1-.941-1 .702-1 1.559M2.079 102.583c.048 1.165.285 1.402.604.605.289-.722.253-1.585-.079-1.917-.332-.332-.568.258-.525 1.312m116.007.417c-.031.825.381 2.175.914 3 1.181 1.828 1.181.249 0-2.5-.567-1.319-.878-1.489-.914-.5m59.146 2c0 1.925.206 2.713.457 1.75.252-.963.252-2.537 0-3.5-.251-.963-.457-.175-.457 1.75m75.847-1.417c.048 1.165.285 1.402.604.605.289-.722.253-1.585-.079-1.917-.332-.332-.568.258-.525 1.312m-163.895 2.09c.36 3.044 2.276 4.177 3.161 1.869.816-2.125-.258-4.542-2.018-4.542-.995 0-1.359.852-1.143 2.673M90 106c0 1.867.267 2.133 1.2 1.2.933-.933.933-1.467 0-2.4-.933-.933-1.2-.667-1.2 1.2m46.079-1.332c-.043.643-.338 1.993-.655 3-.547 1.741-.518 1.744.571.044.631-.983.925-2.333.655-3-.355-.875-.514-.887-.571-.044M1.158 108c0 1.375.227 1.938.504 1.25.278-.687.278-1.812 0-2.5-.277-.687-.504-.125-.504 1.25m149.239.167c-.283.458 1.087.833 3.044.833s3.559-.174 3.559-.387c0-.821-6.116-1.234-6.603-.446m100.682 1.416c.048 1.165.285 1.402.604.605.289-.722.253-1.585-.079-1.917-.332-.332-.568.258-.525 1.312m3.079.417c0 1.375.227 1.938.504 1.25.278-.687.278-1.812 0-2.5-.277-.687-.504-.125-.504 1.25m-92.705 2.75c5.051 5.431 9.07 5.795 12.958 1.173 1.424-1.692 2.589-3.558 2.589-4.148 0-.589-1.027.458-2.282 2.327-3.443 5.127-7.74 5.2-13.101.221L157.5 108.5l3.953 4.25m87.626-1.167c.048 1.165.285 1.402.604.605.289-.722.253-1.585-.079-1.917-.332-.332-.568.258-.525 1.312M.232 116c0 1.925.206 2.713.457 1.75.252-.963.252-2.537 0-3.5-.251-.963-.457-.175-.457 1.75m2.926 0c0 1.375.227 1.938.504 1.25.278-.687.278-1.812 0-2.5-.277-.687-.504-.125-.504 1.25m252.142 4c0 3.025.187 4.263.416 2.75.229-1.513.229-3.987 0-5.5s-.416-.275-.416 2.75m-3.105-1.5c.02 1.65.244 2.204.498 1.231.254-.973.237-2.323-.037-3-.274-.677-.481.119-.461 1.769m-246.909 3c.008 2.75.202 3.756.432 2.236.229-1.52.223-3.77-.014-5-.237-1.23-.425.014-.418 2.764m245.057 6c.003 4.4.179 6.076.39 3.724.212-2.352.209-5.952-.006-8s-.388-.124-.384 4.276M73.2 126.2c-2.512 2.512-.642 6.8 2.965 6.8.97 0 2.266-.937 2.88-2.083.889-1.662.764-2.471-.62-4-1.999-2.209-3.524-2.418-5.225-.717m.162 1.3c-.793 2.064.282 4.5 1.984 4.5.775 0 1.969-.675 2.654-1.5.993-1.197.993-1.803 0-3-.685-.825-1.879-1.5-2.654-1.5-.775 0-1.668.675-1.984 1.5m-68.076 6c.008 2.75.202 3.756.432 2.236.229-1.52.223-3.77-.014-5-.237-1.23-.425.014-.418 2.764m249.814 1.191c-.055 2.855.35 5.469.9 5.809 1.181.73 1.181-4.813 0-8.5-.632-1.975-.822-1.409-.9 2.691m-2.905 1.809c.02 1.65.244 2.204.498 1.231.254-.973.237-2.323-.037-3-.274-.677-.481.119-.461 1.769m-200.736.567c-.363.586-.389 1.336-.059 1.666.33.33.6.019.6-.691 0-.919.939-1.112 3.25-.668 2.311.443 2.817.339 1.75-.36-1.985-1.301-4.72-1.275-5.541.053m8.041-.576c.55.184 2.266.614 3.813.956 1.904.422 3.264 1.661 4.211 3.838.854 1.964 1.413 2.516 1.437 1.42.061-2.797-4.474-6.716-7.666-6.626-1.537.043-2.345.229-1.795.412m12.738.671c-.681.681-1.209 1.935-1.175 2.788.039.951.413.68.968-.7 1.431-3.561 4.765-2.925 5.248 1 .398 3.238.4 3.237.31-.25-.069-2.708-.544-3.565-2.101-3.788-1.106-.159-2.569.269-3.25.95m7.962.038c-.66.66-1.186 1.673-1.17 2.25.017.578.489.263 1.05-.7.816-1.401 2.405-1.75 7.97-1.75 8.687 0 8.907 1.05 1.794 8.571-5.141 5.437-6.024 8.069-1.686 5.031 3.05-2.137 4.548-2.019 5.876.462.822 1.536.796 2.436-.101 3.517-1.763 2.124-19.731 1.857-22.183-.33-2.122-1.892-2.348-.992-.272 1.084 1.79 1.79 20.044 2.306 22.071.624.887-.736 1.47-.738 1.921-.008.356.577 3.739 1.049 7.516 1.049 6.05 0 7.093-.285 8.748-2.388l1.878-2.389 2.299 2.389c2.392 2.484 7.435 3.256 8.631 1.32.363-.588 1.402-.786 2.309-.441 1.322.503 1.401.378.399-.632-.972-.979-1.517-.992-2.45-.059-3.844 3.844-10.71-.781-10.934-7.364l-.133-3.936-.65 4.637c-.974 6.948-2.162 7.863-10.205 7.863-8.942 0-8.946-1.837-.026-11.25 1.955-2.062 3.016-3.75 2.359-3.75s-1.736.868-2.399 1.93c-.98 1.569-1.59 1.728-3.259.85-1.129-.594-2.384-1.575-2.788-2.18-.505-.756-.739-.703-.75.171-.008.7 1.086 1.774 2.432 2.387l2.447 1.115-2.585 3.389c-2.565 3.362-2.597 3.372-4.06 1.283-1.126-1.607-2.099-1.951-4.112-1.455-2.57.634-2.544.553.985-3.17 1.993-2.101 4.455-4.832 5.473-6.07 1.586-1.93 2.813-2.25 8.627-2.25 8.559 0 8.875 1.51 1.778 8.5-5.256 5.177-5.969 6.5-3.5 6.5.825 0 1.5-.42 1.5-.933 0-1.656 4.033-2.282 5.798-.9 1.545 1.21 1.571 1.166.276-.481-1.017-1.295-2.163-1.633-4-1.182-2.331.573-2.164.212 1.771-3.821 6.213-6.367 5.56-8.099-3.195-8.481-3.936-.171-7.39.167-8.151.799-.914.758-1.521.773-1.969.048-.904-1.464-13.843-1.336-15.33.151m38.575.359c-1.499.813-3.249 2.483-3.889 3.71-.983 1.882-.766 1.808 1.389-.479 2.425-2.572 3.934-3.212 9.725-4.124 1.799-.283 1.519-.421-1-.49-1.925-.053-4.726.57-6.225 1.383m11.914-.911c1.203.261 2.415 1.235 2.692 2.163.363 1.216.447 1.128.301-.311-.137-1.358-1.002-2.053-2.692-2.164-2.087-.137-2.136-.087-.301.312m6.475.718c-.489.624-1.164 3.575-1.5 6.557-.679 6.032-2.167 8.478-3.69 6.069-.801-1.266-.946-1.227-.959.258-.022 2.59 3.704 2.21 4.553-.464.386-1.218.979-4.48 1.317-7.25l.615-5.036h6c5.847 0 5.999.068 5.966 2.675-.018 1.472.319 2.458.75 2.191 1.221-.754.922-4.014-.466-5.09-1.749-1.355-11.509-1.285-12.586.09m16.207-.157c-.314.508-.301 1.194.029 1.524.33.33.6.127.6-.451 0-1.708 10.222-1.202 12.5.619 1.956 1.564 1.961 1.553.224-.508-1.409-1.673-2.911-2.107-7.279-2.107-3.027 0-5.76.415-6.074.923m24.663-.287c4.994.979 5.966 1.804 5.966 5.064 0 1.908-.882 3.563-2.635 4.941-1.449 1.14-2.266 2.073-1.814 2.073.451 0 1.862-.978 3.135-2.174 1.98-1.861 2.314-1.931 2.314-.486 0 .929-1.463 2.581-3.25 3.671-1.787 1.09-2.748 1.983-2.135 1.985 2.336.008 6.385-4.187 6.385-6.614 0-2.955 3.816-7.047 7.414-7.95 3.657-.918 7.336.231 8.659 2.705 1.511 2.822-1.469 6.931-6.167 8.503-3.2 1.072-3.425.999-3.718-1.2-.392-2.948 1.422-6.44 3.347-6.44 2.213 0 1.756 2.683-.758 4.443-1.222.856-1.742 1.557-1.154 1.557 1.817 0 4.652-3.842 4.03-5.463-1.472-3.836-6.653.436-6.653 5.486 0 2.664 1.616 4.988 3.45 4.962.578-.009.375-.452-.45-.985-1.266-.818-1.212-.972.346-.985 2.84-.023 7.358-3.071 8.603-5.803.886-1.943.796-2.952-.427-4.819-3.019-4.607-9.728-4.341-14.65.581-2.444 2.444-2.872 2.594-2.872 1.006 0-2.539-3.788-5.005-7.473-4.865-2.977.113-2.968.127.507.807m-8.445 3.155c-1.424 1.692-2.587 3.604-2.585 4.25.002.645.871-.25 1.932-1.989 1.06-1.739 2.746-3.638 3.746-4.22 1-.581 1.296-1.071.657-1.088-.639-.016-2.326 1.355-3.75 3.047M3.158 140c0 1.375.227 1.938.504 1.25.278-.687.278-1.812 0-2.5-.277-.687-.504-.125-.504 1.25m47.114 4c0 2.475.195 3.488.434 2.25.238-1.238.238-3.262 0-4.5-.239-1.238-.434-.225-.434 2.25M83 141c-1.282.828-1.246.972.25.985.963.008 1.75-.435 1.75-.985 0-1.22-.113-1.22-2 0m16.5 0c-.34.55.084 1 .941 1s1.559-.45 1.559-1-.423-1-.941-1-1.219.45-1.559 1m22.071.571c-.864.865-1.571 2.09-1.571 2.723s.701.151 1.557-1.071c.856-1.223 2.263-2.223 3.128-2.223 1.285 0 1.448.764.899 4.2-.369 2.311-1.157 4.786-1.75 5.5-.768.926-.769 1.3-.003 1.3 1.167 0 3.154-6.124 3.163-9.75.007-2.693-3.028-3.073-5.423-.679m22.574-.681c-1.117.707-1.053 1.321.365 3.484.946 1.444 1.945 2.626 2.22 2.626.275 0-.203-1.073-1.063-2.385-1.85-2.825-.99-4.356 1.039-1.849 1.26 1.556 1.292 1.503.314-.516-1.244-2.567-1.088-2.493-2.875-1.36m8.127 3.11c0 2.475.195 3.488.434 2.25.238-1.238.238-3.262 0-4.5-.239-1.238-.434-.225-.434 2.25m7.828-3.08c-1.155.729-1.023 1.362.75 3.617 2.665 3.387 2.763 7.598.232 9.888-2.901 2.626-6.302 1.636-8.33-2.425-.962-1.925-1.75-2.773-1.75-1.885-.003 2.621 3.959 6.885 6.396 6.885 2.959 0 6.602-3.962 6.602-7.18 0-1.402-.885-3.676-1.967-5.051-1.082-1.376-1.689-2.779-1.349-3.12.34-.34 1.198.163 1.906 1.117 1.214 1.634 1.392 1.622 3.099-.211 1.676-1.8 1.678-1.845.03-.602-1.516 1.143-1.963 1.101-3-.286-.811-1.084-1.688-1.334-2.619-.747m14.588.872c-2.102 2.323-2.195 7.542-.164 9.228.838.696 1.813.976 2.167.623.353-.354.005-.675-.774-.713-.837-.042-.598-.422.583-.93 1.71-.735 1.746-.87.25-.93-2.317-.093-2.22-.509.824-3.553 1.415-1.416 2.391-3.124 2.167-3.795-.658-1.977-3.233-1.941-5.053.07m-113.713-.134c1.594.791 1.206 7.018-.546 8.771-.865.864-1.106 1.571-.536 1.571 2.905 0 4.167-10.038 1.332-10.598-.701-.139-.814-.023-.25.256m18.025.283c0 .518.445 1.216.989 1.552.566.35.734-.051.393-.941-.665-1.732-1.382-2.049-1.382-.611m5.664 1.02c-1.942 1.243-2.414 1.987-1.5 2.36.894.364.603.768-.881 1.22-1.219.371-2.487 1.526-2.817 2.567-.927 2.921-2.296 2.243-2.743-1.358-.397-3.2-.405-3.192-.563.5-.088 2.063.31 3.75.883 3.75.574 0 3.612-2.472 6.75-5.494 5.758-5.544 6.087-6.883.871-3.545m47.588 1.539c.011 2.2.216 2.982.455 1.738.239-1.244.23-3.044-.02-4s-.446.062-.435 2.262m42.788-2.048c-.663.799-1.05 2.256-.861 3.238.313 1.625.547 1.584 2.582-.451C177.993 144.007 179 142.55 179 142c0-1.499-2.586-1.204-3.96.452M70.252 145.5c.011 2.2.216 2.982.455 1.738.239-1.244.23-3.044-.02-4s-.446.062-.435 2.262m-64.173.083c.048 1.165.285 1.402.604.605.289-.722.253-1.585-.079-1.917-.332-.332-.568.258-.525 1.312M56.232 147c0 1.925.206 2.713.457 1.75.252-.963.252-2.537 0-3.5-.251-.963-.457-.175-.457 1.75m197.926-1c0 1.375.227 1.938.504 1.25.278-.687.278-1.812 0-2.5-.277-.687-.504-.125-.504 1.25m-253 1c0 1.375.227 1.938.504 1.25.278-.687.278-1.812 0-2.5-.277-.687-.504-.125-.504 1.25m140.873-1c0 .825.436 2.175.969 3 .862 1.333.969 1.333.969 0 0-.825-.436-2.175-.969-3-.862-1.333-.969-1.333-.969 0m15.999 1.45c-.022 2.151.269 2.651 1.074 1.846.791-.791.799-1.626.03-2.95-.941-1.618-1.077-1.482-1.104 1.104m44.894.159c-1.333 1.436-3.324 2.982-4.424 3.437-1.592.659-1.659.84-.327.891.92.034 3.023-1.287 4.673-2.937 3.309-3.308 4.154-3.652 4.154-1.687 0 1.512-4.473 5.915-7.684 7.565-3.57 1.834-8.186 1.343-10.662-1.133l-2.256-2.256-3.347 2.256c-1.841 1.24-2.93 2.255-2.421 2.255.509 0 1.93-.704 3.158-1.564 2.062-1.445 2.434-1.406 4.858.5 4.702 3.699 10.965 2.282 16.734-3.787 1.748-1.839 2.644-3.643 2.281-4.589-.842-2.197-1.949-1.951-4.737 1.049m-198.845-.026c.048 1.165.285 1.402.604.605.289-.722.253-1.585-.079-1.917-.332-.332-.568.258-.525 1.312m63.661 1.122c-.77 3.674-4.196 6.304-9.576 7.351-3.458.674-3.496.72-.664.825 5.534.206 12.154-5.483 11.269-9.683-.212-1.008-.631-.396-1.029 1.507m51.376-1.537c-.164 2.361.917 4.832 2.113 4.832.687 0 .688-.404.001-1.25-.558-.687-1.236-2.15-1.506-3.25-.363-1.476-.522-1.563-.608-.332m47.411 1.332c.778 4.286 5.705 8.528 9.739 8.385 3.216-.114 3.213-.119-.584-.854-4.426-.856-6.678-2.807-8.441-7.313l-1.259-3.218.545 3M147 149.777c0 .978-.711 2.891-1.58 4.25l-1.58 2.473 2.08-2.361c1.851-2.101 2.891-6.139 1.58-6.139-.275 0-.5.8-.5 1.777M49.272 153c0 2.475.195 3.488.434 2.25.238-1.238.238-3.262 0-4.5-.239-1.238-.434-.225-.434 2.25m198.807-2.417c.048 1.165.285 1.402.604.605.289-.722.253-1.585-.079-1.917-.332-.332-.568.258-.525 1.312m-241 1c.048 1.165.285 1.402.604.605.289-.722.253-1.585-.079-1.917-.332-.332-.568.258-.525 1.312M141 151.031c0 .533.675.969 1.5.969s1.5-.177 1.5-.393c0-.216-.675-.652-1.5-.969-.825-.316-1.5-.139-1.5.393m112.079.552c.048 1.165.285 1.402.604.605.289-.722.253-1.585-.079-1.917-.332-.332-.568.258-.525 1.312M89 151.969c0 .532.675.709 1.5.393.825-.317 1.5-.753 1.5-.969 0-.216-.675-.393-1.5-.393s-1.5.436-1.5.969m17 0c0 .532.675.709 1.5.393.825-.317 1.5-.753 1.5-.969 0-.216-.675-.393-1.5-.393s-1.5.436-1.5.969M2.079 153.583c.048 1.165.285 1.402.604.605.289-.722.253-1.585-.079-1.917-.332-.332-.568.258-.525 1.312m133.497.294c-.371.6-2.115 1.545-3.875 2.099-3.148.99-3.151.998-.201.451 3.765-.698 5.245-.697 9 .005l3 .56-2.915-.954c-1.603-.524-3.234-1.47-3.625-2.102-.506-.819-.904-.836-1.384-.059m116.503 2.706c.048 1.165.285 1.402.604.605.289-.722.253-1.585-.079-1.917-.332-.332-.568.258-.525 1.312M48.252 161.5c.011 2.2.216 2.982.455 1.738.239-1.244.23-3.044-.02-4s-.446.062-.435 2.262m5.696 1c-.4 3.569-.736 3.996-3.123 3.966-1.472-.018-2.458.319-2.191.75.795 1.286 4.034.889 5.312-.651.655-.789 1.024-2.926.82-4.75-.368-3.3-.372-3.297-.818.685m.951 14.25c-.056.412-.024 2.179.07 3.925.149 2.755-.103 3.103-1.904 2.632-2.162-.566-5.065 1.158-5.065 3.007 0 .587.661.195 1.468-.873.808-1.067 1.483-1.429 1.5-.802.018.626.82 1.076 1.782 1 1.293-.103 1.834.743 2.073 3.238.312 3.265-1.128 6.152-2.422 4.857-.348-.348-1.022-2.118-1.498-3.933-.781-2.983-.817-2.891-.372.949.54 4.661-.092 5.504-1.5 2-.612-1.523-.925-1.724-.968-.622-.097 2.495 2.018 3.639 6.687 3.618 3.269-.014 4.232-.391 4.171-1.632-.051-1.045-.257-1.171-.585-.358-1.271 3.153-2.336-.6-2.336-8.232 0-5.75.39-8.515 1.25-8.862.747-.301.545-.536-.5-.583-.962-.043-1.796.259-1.851.671M71 185.927c0 9.466.123 10.073 2.036 10.073 1.929 0 2.021-.515 1.75-9.738-.245-8.346-.536-9.787-2.036-10.074-1.573-.301-1.75.684-1.75 9.739m60-8.958c0 .532.675.709 1.5.393 1.266-.486 1.5.847 1.5 8.531 0 11.411-1.797 12.093-2.256.857l-.337-8.25-.203 8.82c-.198 8.577-.143 8.81 2.004 8.5 1.998-.29 2.192-.844 2.028-5.82l-.182-5.5 1.996 4c1.098 2.2 1.759 3.171 1.469 2.157-1.754-6.128-1.766-6.689-.13-6.061.94.361 1.611.109 1.611-.606 0-.766-.935-1.044-2.5-.745-2.318.443-2.5.196-2.5-3.384 0-3.194-.345-3.861-2-3.861-1.1 0-2 .436-2 .969m20 .138c0 .609.675.848 1.5.531 1.194-.458 1.5.326 1.5 3.834 0 4.189 1.379 6.891 2.224 4.357.77-2.31 2.776.342 2.776 3.671 0 3.581-1.707 5.593-2.987 3.521-.594-.961-.957-.934-1.638.122-.591.917-1.067-.266-1.468-3.643l-.593-5-.157 5.552-.157 5.552 3.75.108c3.798.111 6.25-1.077 6.25-3.026 0-.587-.562-.299-1.25.641-1.056 1.445-1.25.87-1.25-3.713 0-6.244.955-6.364 2.571-.322 1.553 5.811 2.397 6.546 7.221 6.293l4.208-.221-.351-4.932c-.404-5.66-1.493-7.432-4.571-7.432-3.883 0-6.615 4.908-2.828 5.079 1.056.048 1.252.28.494.585-.691.279-1.001.92-.69 1.424.341.551 1.289.531 2.375-.05.995-.532 2.092-.683 2.44-.336.347.347.631-.105.631-1.004 0-.974-.554-1.423-1.371-1.109-.754.289-1.618-.119-1.921-.907-.38-.991.17-1.432 1.783-1.432 2.079 0 2.37.532 2.671 4.876.186 2.681 0 4.875-.412 4.875-.412-.001-.75-.676-.75-1.501 0-1.752-1.577-1.994-2.566-.393-.478.774-.976.698-1.653-.25-.726-1.016-.82-.896-.375.477.387 1.192.166 1.69-.633 1.424-.676-.226-1.787-2.337-2.469-4.693-1.62-5.594-3.151-7.327-5.993-6.784-2.092.4-2.311.076-2.311-3.42 0-3.194-.345-3.861-2-3.861-1.1 0-2 .498-2 1.107m23.951-.729c-.248.245-.308 4.761-.132 10.034.289 8.698.498 9.588 2.25 9.588 1.414 0 1.959-.736 2.037-2.75l.107-2.75 1.065 2.689c.968 2.445 1.528 2.682 6.144 2.608 5.973-.096 8.747-1.272 8.515-3.61-.35-3.525.123-3.574 1.815-.187 1.614 3.232 2.116 3.511 6.564 3.643 3.868.114 4.704-.148 4.25-1.332-.311-.811-.566-5.263-.566-9.893 0-7.611-.183-8.418-1.905-8.418-1.635 0-1.831.549-1.384 3.884.493 3.676.392 3.858-1.906 3.419-1.551-.296-2.946.176-3.866 1.309-1.262 1.554-1.255 1.66.061.858 2.651-1.615 4.103-1.363 4.954.859.819 2.14.839 2.135 1.418-.329.324-1.375.75-4.075.948-6 .198-1.925.416.775.485 6 .114 8.702.004 9.29-1.305 7-1.156-2.022-1.436-2.149-1.465-.667-.059 3.084-2.495 1.229-3.166-2.411-.524-2.837-.583-2.657-.347 1.055.257 4.056.152 4.297-1.119 2.559-.772-1.055-1.403-2.957-1.403-4.227 0-2.724-1.471-3.049-2.531-.559-.642 1.509-.849 1.406-1.507-.75-.499-1.637-.797-1.896-.862-.75-.145 2.532-3.1 2.185-3.1-.363 0-1.776.476-2.044 2.976-1.677 2.382.349 2.756.172 1.877-.887-3.19-3.843-9.264.285-8.583 5.833l.41 3.344.16-3.691c.231-5.34 2.135-5.857 2.276-.618.064 2.37.327 3.495.585 2.501.569-2.199 4.726-1.936 4.885.308.062.865-.071.971-.313.25-.231-.687-.823-1.25-1.315-1.25s-.617.725-.277 1.61c.522 1.362-.017 1.538-3.493 1.136-2.378-.275-4.258-.037-4.458.564-.19.571-1.368-.397-2.616-2.151-1.249-1.753-2.1-3.702-1.89-4.331.209-.628 1.362.391 2.562 2.265 1.199 1.874 2.188 3.054 2.197 2.622.009-.432-.697-1.875-1.569-3.206-1.71-2.61-1.203-4.509 1.204-4.509.825 0 1.222-.45.882-1-1.043-1.688-4.488-1.133-4.657.75-.087.963-.424-.496-.75-3.241-.402-3.385-1.091-5.086-2.142-5.285-.852-.161-1.752-.092-2 .154M72 186c0 5.333.407 9 1 9s1-3.667 1-9-.407-9-1-9-1 3.667-1 9m104 0c0 4.95.419 9 .93 9 1.272 0 1.631-3.26 1.238-11.25-.49-9.952-2.168-8.21-2.168 2.25m-117.768-3c0 1.925.206 2.713.457 1.75.252-.963.252-2.537 0-3.5-.251-.963-.457-.175-.457 1.75m19.524-2.423c-.34.34-.376 1.25-.08 2.021.296.771.152 1.402-.319 1.401-.471 0-.798 2.587-.726 5.75.117 5.122.373 5.787 2.346 6.083 2.154.323 2.203.118 1.803-7.439-.373-7.046-1.327-9.512-3.024-7.816m17.244.332c1.102.779 1.153 1.064.191 1.076-.72.008-1.031.465-.691 1.015.34.55.141 1-.441 1S93 184.505 93 185.122c0 .776.464.738 1.5-.122 1.304-1.082 1.5-.495 1.5 4.485 0 4.682-.274 5.624-1.5 5.153-.825-.316-1.5-.139-1.5.393 0 .533 1.097.969 2.437.969 2.174 0 2.389-.351 1.993-3.25-.245-1.787-.595-5.251-.778-7.697-.206-2.758-.868-4.591-1.742-4.826-1.097-.295-1.077-.144.09.682m-33.345 3.92C58.304 188.532 60.656 196 65.174 196c1.892 0 4.572-2.986 4.527-5.044-.041-1.841-2.701-4.685-2.701-2.887 0 .725-.921.917-2.5.52-1.442-.361-2.5-.196-2.5.392 0 .56 1.029 1.019 2.286 1.019 1.619 0 2.285.583 2.285 2 0 2.197-2.106 2.74-2.909.75-.388-.961-.522-.948-.583.059-.174 2.878-2.079-.155-2.079-3.309 0-1.86.45-3.66 1-4 .55-.34 1.007-.029 1.015.691.01.843.277.936.75.261 1.252-1.785 5.226-1.516 5.314.36.051 1.094.26 1.236.594.404 1.479-3.68-5.081-5.633-8.018-2.387m22 0c-2.543 2.81-2.134 7.811.796 9.731 2.682 1.757 6.034 1.226 6.925-1.098.629-1.638-.914-2.018-1.876-.462-.994 1.608-3.314 1.151-3.811-.75-.422-1.617-.466-1.613-.573.059-.206 3.218-2.116.683-2.116-2.809 0-3.698 1.573-5.581 2.308-2.762.384 1.469.479 1.492.576.137.074-1.036 1.023-1.625 2.616-1.625 2.633 0 3.37 1.232 1.25 2.088-.901.363-.918.526-.059.583 1.872.124 2.602-1.863 1.273-3.465-1.669-2.01-5.321-1.824-7.309.373m15.902.394c-4.077 5.82 1.74 13.462 7.443 9.777.895-.578 1.021-.976.313-.985-.778-.01-1.043-1.307-.768-3.765l.42-3.75-.866 3.301c-.477 1.815-1.152 3.585-1.5 3.933-1.292 1.293-2.734-1.589-2.422-4.841.275-2.86.733-3.392 3.073-3.567 1.513-.113 2.75.292 2.75.901 0 .608.289.817.643.464 1.23-1.231-1.908-3.691-4.709-3.691-1.781 0-3.394.819-4.377 2.223m11.55-1.289c-1.938 1.197-1.789 7.655.228 9.883 1.148 1.269 3.061 1.91 5.697 1.91H121l-.015-5.113c-.027-9.071-3.548-10.499-4.172-1.692-.456 6.437-2.813 6.621-2.813.22 0-5.254-.72-6.551-2.893-5.208m11.56-.267c-1.24 1.24-.677 4.08 1.083 5.461 1.575 1.235 1.617 1.202.417-.33-.732-.936-1.182-2.396-1-3.244.294-1.362.656-1.374 3.083-.108 2.548 1.33 2.75 1.293 2.75-.505 0-1.465-.696-1.941-2.833-1.941-1.559 0-3.134.3-3.5.667m19.503 1.083c.291 3.475-.19 5.355-1.21 4.725-.681-.421-.803.301-.354 2.09.527 2.101.385 2.547-.615 1.93-.79-.489-1.056-.409-.677.204.752 1.218-1.407 7.301-2.592 7.301-.462 0-.562-.45-.222-1 .34-.55.141-1-.441-1-1.648 0-1.245 1.991.542 2.677 2.001.768 2.828-.534 5.507-8.677 1.177-3.575 2.534-6.928 3.016-7.45 1.436-1.557 1.003-2.55-1.112-2.55-1.283 0-1.936.621-1.842 1.75M78 189.441c0 3.057.45 5.559 1 5.559s1-2.223 1-4.941-.45-5.219-1-5.559c-.621-.384-1 1.49-1 4.941m33.667-4.774c-1.047 1.047-.779 8.146.333 8.833.616.381 1-1.323 1-4.441 0-5.128-.139-5.586-1.333-4.392m6.333 4.774c0 3.057.45 5.559 1 5.559s1-2.223 1-4.941-.45-5.219-1-5.559c-.621-.384-1 1.49-1 4.941m-18.571-2.013c-.638 2.539.214 6.572 1.388 6.572.376 0 .683-2.025.683-4.5 0-4.876-1.093-5.97-2.071-2.072M235 187c-.589 1.1-.845 2-.57 2s.981-.9 1.57-2c.589-1.1.845-2 .57-2s-.981.9-1.57 2m-111-.723c0 .191 1.463 1.418 3.25 2.726 2.011 1.472 2.71 1.714 1.832.634-1.331-1.64-5.082-4.12-5.082-3.36m-65.921 3.306c.048 1.165.285 1.402.604.605.289-.722.253-1.585-.079-1.917-.332-.332-.568.258-.525 1.312m96 0c.048 1.165.285 1.402.604.605.289-.722.253-1.585-.079-1.917-.332-.332-.568.258-.525 1.312M16 191c.589 1.1 1.295 2 1.57 2 .275 0 .019-.9-.57-2s-1.295-2-1.57-2c-.275 0-.019.9.57 2m106.022 1.231c-.017 2.092.566 2.878 2.491 3.362 2.609.654 5.549-.957 5.408-2.965-.05-.709-.266-.663-.583.122-.278.688-.903 1.25-1.39 1.25-.487 0-.644-.629-.348-1.399.295-.769-.014-1.739-.686-2.154-.782-.484-.966-.34-.509.398.392.635.397 1.666.011 2.291-.465.752-1.323.329-2.537-1.25l-1.835-2.386-.022 2.731M67.5 192c-.34.55-.141 1 .441 1S69 192.55 69 192s-.198-1-.441-1-.719.45-1.059 1M19 196c.589 1.1 1.295 2 1.57 2 .275 0 .019-.9-.57-2s-1.295-2-1.57-2c-.275 0-.019.9.57 2m4 6c1.175 1.65 2.361 3 2.636 3 .275 0-.461-1.35-1.636-3-1.175-1.65-2.361-3-2.636-3-.275 0 .461 1.35 1.636 3m5-1.622c0 .207.788.995 1.75 1.75 1.586 1.243 1.621 1.208.378-.378-1.307-1.666-2.128-2.195-2.128-1.372m203.872 1.372c-1.243 1.586-1.208 1.621.378.378 1.666-1.307 2.195-2.128 1.372-2.128-.207 0-.995.787-1.75 1.75M27 202.378c0 .207.788.995 1.75 1.75 1.586 1.243 1.621 1.208.378-.378-1.307-1.666-2.128-2.195-2.128-1.372m198.405 2.872-1.905 2.25 2.25-1.905c2.114-1.79 2.705-2.595 1.905-2.595-.19 0-1.202 1.012-2.25 2.25m3.467.5c-1.243 1.586-1.208 1.621.378.378.963-.755 1.75-1.543 1.75-1.75 0-.823-.821-.294-2.128 1.372M33.5 207c.995 1.1 2.035 2 2.31 2 .275 0-.315-.9-1.31-2-.995-1.1-2.035-2-2.31-2-.275 0 .315.9 1.31 2m-6 1c.995 1.1 2.035 2 2.31 2 .275 0-.315-.9-1.31-2-.995-1.1-2.035-2-2.31-2-.275 0 .315.9 1.31 2m191.937 1.25-2.937 3.25 3.25-2.937c3.029-2.738 3.71-3.563 2.937-3.563-.172 0-1.635 1.463-3.25 3.25M33 209.5c1.292 1.375 2.574 2.5 2.849 2.5.275 0-.557-1.125-1.849-2.5-1.292-1.375-2.574-2.5-2.849-2.5-.275 0 .557 1.125 1.849 2.5m182.477 6.75-7.977 8.25 8.25-7.977c7.662-7.408 8.706-8.523 7.977-8.523-.151 0-3.863 3.713-8.25 8.25m9.447-5.5-2.424 2.75 2.75-2.424c1.512-1.334 2.75-2.571 2.75-2.75 0-.785-.81-.146-3.076 2.424M37 218.5c3.543 3.575 6.667 6.5 6.942 6.5.275 0-2.399-2.925-5.942-6.5s-6.667-6.5-6.942-6.5c-.275 0 2.399 2.925 5.942 6.5m1-6.187c0 .172 1.462 1.635 3.25 3.25l3.25 2.937-2.937-3.25c-2.738-3.029-3.563-3.71-3.563-2.937m179.453 6.937-3.953 4.25 4.25-3.953c2.338-2.174 4.25-4.087 4.25-4.25 0-.757-.871.001-4.547 3.953m-9.016 1-2.937 3.25 3.25-2.937c3.029-2.738 3.71-3.563 2.937-3.563-.172 0-1.635 1.463-3.25 3.25M46 222.5c1.292 1.375 2.574 2.5 2.849 2.5.275 0-.557-1.125-1.849-2.5-1.292-1.375-2.574-2.5-2.849-2.5-.275 0 .557 1.125 1.849 2.5m2.5-.5c.995 1.1 2.035 2 2.31 2 .275 0-.315-.9-1.31-2-.995-1.1-2.035-2-2.31-2-.275 0 .315.9 1.31 2m153.372 3.75c-1.243 1.586-1.208 1.621.378.378 1.666-1.307 2.195-2.128 1.372-2.128-.207 0-.995.787-1.75 1.75m2.533.5-1.905 2.25 2.25-1.905c2.114-1.79 2.705-2.595 1.905-2.595-.19 0-1.202 1.012-2.25 2.25m5 0-1.905 2.25 2.25-1.905c2.114-1.79 2.705-2.595 1.905-2.595-.19 0-1.202 1.012-2.25 2.25M46.5 227c.995 1.1 2.035 2 2.31 2 .275 0-.315-.9-1.31-2-.995-1.1-2.035-2-2.31-2-.275 0 .315.9 1.31 2m3.5 2.378c0 .207.788.995 1.75 1.75 1.586 1.243 1.621 1.208.378-.378-1.307-1.666-2.128-2.195-2.128-1.372m153.872 1.372c-1.243 1.586-1.208 1.621.378.378 1.666-1.307 2.195-2.128 1.372-2.128-.207 0-.995.787-1.75 1.75m-10.431 6.805c-1.864 1.494-1.852 1.512.309.465 1.238-.6 2.25-1.3 2.25-1.555 0-.765-.519-.544-2.559 1.09M65 239.493c0 .677 8.123 4.718 8.575 4.265.21-.209-1.634-1.36-4.097-2.556-2.463-1.197-4.478-1.966-4.478-1.709M185 242c-.901.582-1.025.975-.309.985.655.008 1.469-.435 1.809-.985.767-1.242.421-1.242-1.5 0m-74.187 7.683c.721.289 1.584.253 1.916-.079.332-.332-.258-.568-1.312-.525-1.165.048-1.402.285-.604.604m33 0c.721.289 1.584.253 1.916-.079.332-.332-.258-.568-1.312-.525-1.165.048-1.402.285-.604.604m-20.063 1.049c2.337.211 6.162.211 8.5 0 2.338-.21.425-.383-4.25-.383s-6.588.173-4.25.383m-14.937.951c.721.289 1.584.253 1.916-.079.332-.332-.258-.568-1.312-.525-1.165.048-1.402.285-.604.604m8.456 1.01c.973.254 2.323.237 3-.037.677-.274-.119-.481-1.769-.461-1.65.02-2.204.244-1.231.498m19 0c.973.254 2.323.237 3-.037.677-.274-.119-.481-1.769-.461-1.65.02-2.204.244-1.231.498m-27.519 1.969c.688.278 1.813.278 2.5 0 .688-.277.125-.504-1.25-.504s-1.937.227-1.25.504m36 0c.688.278 1.813.278 2.5 0 .688-.277.125-.504-1.25-.504s-1.937.227-1.25.504m-26.5 1.054c1.513.229 3.987.229 5.5 0s.275-.416-2.75-.416-4.263.187-2.75.416m14 0c1.512.229 3.988.229 5.5 0s.275-.416-2.75-.416-4.262.187-2.75.416" fill="#1976D2" fill-rule="evenodd"/></svg>